<?xml version="1.0" encoding="utf-8"?>
<!-- Generator: Adobe Illustrator 16.0.0, SVG Export Plug-In . SVG Version: 6.00 Build 0)  -->
<!DOCTYPE svg PUBLIC "-//W3C//DTD SVG 1.1//EN" "http://www.w3.org/Graphics/SVG/1.1/DTD/svg11.dtd">
<svg version="1.1" id="Layer_1" xmlns="http://www.w3.org/2000/svg" xmlns:xlink="http://www.w3.org/1999/xlink" x="0px" y="0px"
	 width="509px" height="327.104px" viewBox="0 0 1000 644.104" enable-background="new 0 0 1000 644.104" xml:space="preserve">
<g>
	<path fill="#A8E8E5" d="M920.247,195.148C864.05,60.062,708.987-3.894,573.902,52.302
		c-92.524,38.491-151.654,123.365-161.691,216.423c-0.01,0.027-0.025,0.048-0.028,0.072
		c-12.248,80.205-61.598,104.886-82.387,111.814v128.746c30.023-27.988,74.385-29.545,74.385-29.545
		c53.913-4.621,102.712,23.146,120.035,34.402c2.14,1.486,4.266,2.98,6.445,4.404c0.155,0.117,0.256,0.188,0.256,0.188l-0.011-0.035
		c70.864,46.137,162.531,57.652,246.497,22.723C912.489,485.297,976.44,330.235,920.247,195.148z"/>
	<path fill="#FFCDC4" d="M362.252,490.299c0.034,0.172,0.01,0.105-0.124-0.385C362.164,490.047,362.213,490.168,362.252,490.299
		c-0.167-0.822-1.81-7.457-0.62-3.494c-0.593-1.535-0.939-3.127-1.04-4.773c-0.543-3.932-0.554-7.451-0.214-11.391
		c0.683-7.879-0.606-10.727-6.547-16.008c-4.667-4.148-9.879-7.869-14.137-12.457c-5.456-5.877-9.986-12.529-12.084-20.377
		c-1.333-4.988-2.023-10.162-3.284-15.168c-20.145,6.639-40.375,5.395-56.375,2.082c-9.931-5.246-20.684-8.842-31.813-10.65
		c-0.014-0.008-0.056-0.029-0.056-0.029l0.008,0.021c-18.32-2.963-37.663-1.047-56.054,6.607
		c-52.654,21.902-77.583,82.348-55.677,134.994c21.904,52.66,82.346,77.586,134.999,55.68c18.897-7.854,34.201-20.705,45.072-36.354
		l0.007,0.018c0.009-0.021,0.018-0.047,0.026-0.07c5.674-8.174,10.128-17.111,13.244-26.523
		c8.813-23.156,27.802-35.313,44.685-41.689C362.343,490.578,362.294,490.439,362.252,490.299z"/>
	<g>
		<path fill="#242B2B" d="M638.781,60.537c-0.771-0.403-1.572-0.73-2.393-1.025c-0.83-0.273-1.656-0.544-2.609-0.602
			c-0.244-0.007-0.494-0.012-0.808,0.091c-0.078,0.019-0.167,0.068-0.251,0.117c-0.063,0.042-0.106,0.075-0.16,0.116
			c-0.105,0.074-0.187,0.152-0.28,0.229c-0.35,0.31-0.65,0.632-0.947,0.959c-0.59,0.661-1.111,1.349-1.635,2.053l0.646-0.226
			c-0.882-0.244-1.751-0.436-2.662-0.562c-0.454-0.053-0.912-0.101-1.392-0.097c-0.24,0.004-0.482,0.012-0.739,0.053
			c-0.122,0.01-0.266,0.06-0.399,0.098c-0.132,0.042-0.269,0.121-0.397,0.188c-0.456,0.299-0.754,0.651-1.053,1.008
			c-0.29,0.361-0.543,0.733-0.786,1.112c-0.471,0.767-0.896,1.552-1.239,2.378c0.57-0.686,1.125-1.375,1.711-2.024
			c0.29-0.325,0.584-0.645,0.896-0.933c0.305-0.286,0.625-0.578,0.936-0.728c0.245-0.12,0.64-0.121,1.043-0.104
			c0.406,0.022,0.826,0.093,1.243,0.169c0.838,0.152,1.69,0.358,2.512,0.582l0.412,0.111l0.235-0.338c0.48-0.688,1-1.367,1.519-2.02
			c0.26-0.325,0.526-0.646,0.803-0.927c0.072-0.064,0.139-0.141,0.207-0.192l0.094-0.078c0.01-0.005,0.008-0.015,0.038-0.028
			c0.09-0.045,0.273-0.081,0.459-0.091c0.769-0.028,1.63,0.104,2.463,0.242C637.087,60.204,637.929,60.378,638.781,60.537z"/>
		<path fill="#242B2B" d="M629.372,85.961c-1.016-0.819-2.098-1.531-3.218-2.204c-1.14-0.647-2.271-1.285-3.656-1.646
			c-0.357-0.082-0.722-0.163-1.219-0.105c-0.113,0.008-0.262,0.053-0.399,0.099c-0.107,0.044-0.174,0.083-0.265,0.125
			c-0.181,0.078-0.324,0.169-0.481,0.254c-0.604,0.357-1.141,0.742-1.675,1.134c-1.057,0.798-2.024,1.658-3.001,2.544l1.019-0.146
			c-1.224-0.618-2.45-1.153-3.748-1.602c-0.652-0.213-1.311-0.412-2.016-0.549c-0.352-0.066-0.712-0.124-1.104-0.139
			c-0.184-0.02-0.41,0.014-0.612,0.027c-0.209,0.026-0.433,0.103-0.642,0.16c-0.757,0.308-1.298,0.734-1.838,1.176
			c-0.531,0.445-1.012,0.92-1.479,1.406c-0.917,0.99-1.772,2.014-2.517,3.129c1.04-0.839,2.055-1.692,3.106-2.471
			c0.519-0.396,1.045-0.78,1.587-1.113c0.53-0.327,1.089-0.665,1.591-0.795c0.394-0.104,0.973,0.008,1.56,0.154
			c0.591,0.152,1.188,0.375,1.778,0.611c1.188,0.464,2.381,1.019,3.521,1.588l0.573,0.284l0.442-0.43
			c0.903-0.87,1.869-1.715,2.821-2.524c0.475-0.403,0.963-0.798,1.451-1.125c0.118-0.076,0.243-0.166,0.356-0.224l0.162-0.092
			c0.021-0.001,0.021-0.02,0.063-0.024c0.146-0.046,0.431-0.039,0.701-0.001c1.137,0.181,2.365,0.623,3.548,1.072
			C626.98,84.976,628.165,85.478,629.372,85.961z"/>
		<path fill="#242B2B" d="M667.085,79.719c-0.729-1.081-1.55-2.084-2.416-3.059c-0.898-0.956-1.791-1.901-3.005-2.658
			c-0.319-0.182-0.643-0.369-1.131-0.46c-0.115-0.029-0.269-0.029-0.411-0.023c-0.117,0.008-0.193,0.024-0.294,0.036
			c-0.195,0.023-0.357,0.066-0.534,0.103c-0.68,0.159-1.31,0.365-1.935,0.586c-1.245,0.447-2.424,0.981-3.622,1.537l1.014,0.164
			c-0.982-0.955-1.992-1.829-3.102-2.644c-0.561-0.398-1.128-0.782-1.761-1.12c-0.32-0.168-0.645-0.331-1.014-0.46
			c-0.169-0.073-0.394-0.111-0.592-0.158c-0.209-0.038-0.445-0.032-0.661-0.035c-0.811,0.067-1.458,0.313-2.104,0.572
			c-0.637,0.269-1.238,0.582-1.83,0.903c-1.169,0.677-2.292,1.402-3.333,2.243c1.243-0.49,2.464-1.004,3.703-1.436
			c0.612-0.224,1.226-0.436,1.843-0.59c0.607-0.159,1.241-0.314,1.754-0.291c0.407,0.018,0.928,0.299,1.448,0.611
			c0.516,0.319,1.021,0.709,1.517,1.112c0.992,0.795,1.969,1.679,2.888,2.56l0.462,0.442l0.554-0.278
			c1.122-0.563,2.291-1.083,3.442-1.572c0.574-0.243,1.156-0.476,1.721-0.646c0.135-0.036,0.283-0.085,0.406-0.106l0.186-0.037
			c0.014,0.001,0.021-0.016,0.068-0.009c0.147,0.002,0.416,0.091,0.666,0.208c1.032,0.511,2.073,1.297,3.067,2.078
			C665.092,78.07,666.075,78.903,667.085,79.719z"/>
	</g>
	<g>
		<defs>
			<path id="SVGID_1_" d="M573.902,52.302c-92.524,38.491-151.654,123.365-161.691,216.423c-0.01,0.027-0.025,0.048-0.028,0.072
				c-15.63,102.355-91.694,114.289-91.694,114.289c-26.05,9.494-52.471,7.971-73.176,3.682
				c-12.318-6.504-25.653-10.965-39.459-13.207c-0.016-0.01-0.067-0.035-0.067-0.035l0.01,0.025
				c-22.721-3.678-46.71-1.297-69.521,8.193C72.972,408.91,42.054,483.877,69.223,549.172
				c27.166,65.309,102.129,96.227,167.431,69.057c23.438-9.744,42.418-25.682,55.9-45.09l0.009,0.023
				c0.012-0.027,0.022-0.055,0.032-0.086c7.037-10.137,12.562-21.223,16.428-32.895c22.001-57.82,95.159-60.369,95.159-60.369
				c53.913-4.621,102.712,23.146,120.035,34.402c2.14,1.486,4.266,2.98,6.445,4.404c0.155,0.117,0.256,0.188,0.256,0.188
				l-0.011-0.035c70.864,46.137,162.531,57.652,246.497,22.723c135.085-56.197,199.036-211.259,142.843-346.346
				C864.05,60.062,708.987-3.894,573.902,52.302z"/>
		</defs>
		<clipPath id="SVGID_2_">
			<use xlink:href="#SVGID_1_"  overflow="visible"/>
		</clipPath>
		<g clip-path="url(#SVGID_2_)">
			<polygon fill="#4FCCBE" points="722.069,199.542 700.714,199.542 709.034,156.781 722.069,156.781 			"/>
			<g>
				<rect x="420.9" y="201.208" fill="#4FCCBE" width="506.337" height="18.084"/>
				<polygon fill="#4FCCBE" points="704.568,120.412 704.568,101.463 697.712,101.463 697.712,94.249 694.043,94.249 
					694.043,88.189 692.757,88.189 692.757,77.801 692.424,77.801 692.424,88.189 691.137,88.189 691.137,94.249 687.467,94.249 
					687.467,101.463 680.662,101.463 680.662,120.412 679.249,120.412 679.249,154.815 668.698,154.815 668.698,194.031 
					679.249,194.031 689.799,194.031 705.932,194.031 705.932,120.412 				"/>
				<polygon fill="#4FCCBE" points="743.975,142.179 710.785,142.179 710.785,142.782 712.287,142.782 712.287,198.901 
					742.474,198.901 742.474,142.782 743.975,142.782 				"/>
				<rect x="563.21" y="156.157" fill="#4FCCBE" width="29.425" height="46.748"/>
				<rect x="508.171" y="180.107" fill="#4FCCBE" width="50.606" height="22.797"/>
				<rect x="535.298" y="129.176" fill="#4FCCBE" width="11.109" height="55.981"/>
				<rect x="537.749" y="114.243" fill="#4FCCBE" width="0.578" height="30.443"/>
				<rect x="539.625" y="116.552" fill="#4FCCBE" width="0.577" height="30.444"/>
				<rect x="536.153" y="125.713" fill="#4FCCBE" width="6.79" height="7.503"/>
				<rect x="556.794" y="164.525" fill="#4FCCBE" width="19.335" height="38.379"/>
				<rect x="597.406" y="123.912" fill="#4FCCBE" width="36.291" height="78.993"/>
				<rect x="600.971" y="121.196" fill="#4FCCBE" width="29.161" height="13.157"/>
				<rect x="594.592" y="125.563" fill="#4FCCBE" width="41.919" height="0.924"/>
				<rect x="590.83" y="163.011" fill="#4FCCBE" width="17.101" height="39.894"/>
				<rect x="468.349" y="161.495" fill="#4FCCBE" width="19.622" height="41.41"/>
				<g>
					<rect x="474.698" y="150.242" fill="#4FCCBE" width="39.101" height="52.663"/>
					<rect x="472.417" y="148.221" fill="#4FCCBE" width="42.392" height="2.021"/>
					<rect x="476.429" y="142.738" fill="#4FCCBE" width="17.183" height="10.678"/>
					<rect x="499.226" y="142.738" fill="#4FCCBE" width="2.886" height="6.493"/>
					<rect x="504.997" y="142.738" fill="#4FCCBE" width="3.174" height="6.493"/>
				</g>
				<rect x="457.672" y="186.889" fill="#4FCCBE" width="20.489" height="16.016"/>
				<rect x="449.933" y="180.107" fill="#4FCCBE" width="9.702" height="22.797"/>
				<rect x="438.203" y="194.897" fill="#4FCCBE" width="16.581" height="8.008"/>
				<rect x="630.132" y="185.158" fill="#4FCCBE" width="204.312" height="17.747"/>
				<rect x="767.593" y="156.678" fill="#4FCCBE" width="31.55" height="46.227"/>
				<rect x="794.524" y="174.651" fill="#4FCCBE" width="31.55" height="27.993"/>
				<rect x="728.636" y="170.54" fill="#4FCCBE" width="17.698" height="23.491"/>
				<rect x="783.367" y="112.717" fill="#4FCCBE" width="22.317" height="90.188"/>
				<polygon fill="#4FCCBE" points="842.428,202.905 812.994,202.905 812.994,150.242 835.31,150.242 				"/>
				<rect x="886" y="190.883" fill="#4FCCBE" width="25.78" height="12.021"/>
				<rect x="799.911" y="93.875" fill="#4FCCBE" width="0.77" height="24.508"/>
				<rect x="802.509" y="99.133" fill="#4FCCBE" width="0.769" height="24.509"/>
				<rect x="797.554" y="102.517" fill="#4FCCBE" width="0.771" height="24.509"/>
				<rect x="814.147" y="145.985" fill="#4FCCBE" width="10.533" height="8.297"/>
				<rect x="815.302" y="143.027" fill="#4FCCBE" width="8.225" height="4.663"/>
				<rect x="828.865" y="148.416" fill="#4FCCBE" width="2.019" height="3.35"/>
				<rect x="831.6" y="145.36" fill="#4FCCBE" width="2.885" height="6.405"/>
			</g>
			<g>
				<g>
					<rect x="728.547" y="133.062" fill="#80E1D7" width="26.754" height="86.231"/>
					<rect x="726.549" y="133.572" fill="#80E1D7" width="30.75" height="0.874"/>
					<rect x="727.381" y="145.684" fill="#80E1D7" width="29.086" height="0.872"/>
					<rect x="727.381" y="157.415" fill="#80E1D7" width="29.086" height="0.871"/>
					<rect x="727.381" y="169.146" fill="#80E1D7" width="29.086" height="0.871"/>
					<rect x="727.381" y="180.876" fill="#80E1D7" width="29.086" height="0.871"/>
					<rect x="727.381" y="192.607" fill="#80E1D7" width="29.086" height="0.871"/>
					<rect x="727.381" y="204.337" fill="#80E1D7" width="29.086" height="0.872"/>
					<rect x="725.531" y="131.189" fill="#80E1D7" width="32.784" height="2.383"/>
					<rect x="730.955" y="137.278" fill="#D6FFF1" width="2.779" height="6.889"/>
					<rect x="737.173" y="137.278" fill="#80E1D7" width="2.777" height="6.889"/>
					<rect x="743.389" y="137.278" fill="#80E1D7" width="2.78" height="6.889"/>
					<rect x="749.608" y="137.278" fill="#80E1D7" width="2.778" height="6.889"/>
					<rect x="730.955" y="148.54" fill="#80E1D7" width="2.779" height="6.889"/>
					<rect x="737.173" y="148.54" fill="#D6FFF1" width="2.777" height="6.889"/>
					<rect x="743.389" y="148.54" fill="#80E1D7" width="2.78" height="6.889"/>
					<rect x="749.608" y="148.54" fill="#80E1D7" width="2.778" height="6.889"/>
					<rect x="730.955" y="160.272" fill="#80E1D7" width="2.779" height="6.888"/>
					<rect x="737.173" y="160.272" fill="#80E1D7" width="2.777" height="6.888"/>
					<rect x="743.389" y="160.272" fill="#80E1D7" width="2.78" height="6.888"/>
					<rect x="749.608" y="160.272" fill="#D6FFF1" width="2.778" height="6.888"/>
					<rect x="730.955" y="172.002" fill="#80E1D7" width="2.779" height="6.888"/>
					<rect x="737.173" y="172.002" fill="#D6FFF1" width="2.777" height="6.888"/>
					<rect x="743.389" y="172.002" fill="#D6FFF1" width="2.78" height="6.888"/>
					<rect x="749.608" y="172.002" fill="#80E1D7" width="2.778" height="6.888"/>
					<rect x="730.955" y="183.733" fill="#D6FFF1" width="2.779" height="6.889"/>
					<rect x="737.173" y="183.733" fill="#80E1D7" width="2.777" height="6.889"/>
					<rect x="743.389" y="183.733" fill="#80E1D7" width="2.78" height="6.889"/>
					<rect x="749.608" y="183.733" fill="#80E1D7" width="2.778" height="6.889"/>
					<rect x="730.955" y="195.464" fill="#80E1D7" width="2.779" height="6.888"/>
					<rect x="737.173" y="195.464" fill="#80E1D7" width="2.777" height="6.888"/>
					<rect x="743.389" y="195.464" fill="#D6FFF1" width="2.78" height="6.888"/>
					<rect x="749.608" y="195.464" fill="#80E1D7" width="2.778" height="6.888"/>
					<rect x="730.955" y="207.194" fill="#80E1D7" width="2.779" height="6.889"/>
					<rect x="737.173" y="207.194" fill="#D6FFF1" width="2.777" height="6.889"/>
					<rect x="743.389" y="207.194" fill="#80E1D7" width="2.78" height="6.889"/>
					<rect x="749.608" y="207.194" fill="#D6FFF1" width="2.778" height="6.889"/>
					<rect x="730.235" y="127.901" fill="#80E1D7" width="9.1" height="4.479"/>
					<rect x="729.618" y="127.773" fill="#80E1D7" width="10.332" height="0.767"/>
				</g>
				<g>
					<polygon fill="#80E1D7" points="690.202,219.293 654.566,219.293 654.566,137.36 690.202,128.643 					"/>
					<rect x="652.999" y="135.918" fill="#80E1D7" width="3.132" height="83.375"/>
					<rect x="661.908" y="133.569" fill="#80E1D7" width="3.133" height="85.724"/>
					<rect x="670.818" y="131.128" fill="#80E1D7" width="3.132" height="88.165"/>
					<rect x="679.728" y="129.14" fill="#80E1D7" width="3.133" height="90.153"/>
					<rect x="688.638" y="127.026" fill="#80E1D7" width="3.131" height="92.267"/>
					<rect x="656.942" y="142.916" fill="#D6FFF1" width="4.156" height="6.332"/>
					<rect x="665.852" y="142.916" fill="#D6FFF1" width="4.155" height="6.332"/>
					<rect x="674.762" y="142.916" fill="#80E1D7" width="4.155" height="6.332"/>
					<rect x="683.67" y="142.916" fill="#D6FFF1" width="4.155" height="6.332"/>
					<rect x="656.942" y="153.94" fill="#80E1D7" width="4.156" height="6.332"/>
					<rect x="665.852" y="153.94" fill="#80E1D7" width="4.155" height="6.332"/>
					<rect x="674.762" y="153.94" fill="#D6FFF1" width="4.155" height="6.332"/>
					<rect x="683.67" y="153.94" fill="#D6FFF1" width="4.155" height="6.332"/>
					<rect x="656.942" y="164.967" fill="#D6FFF1" width="4.156" height="6.331"/>
					<rect x="665.852" y="164.967" fill="#D6FFF1" width="4.155" height="6.331"/>
					<rect x="674.762" y="164.967" fill="#D6FFF1" width="4.155" height="6.331"/>
					<rect x="683.67" y="164.967" fill="#80E1D7" width="4.155" height="6.331"/>
					<rect x="656.942" y="175.992" fill="#D6FFF1" width="4.156" height="6.331"/>
					<rect x="665.852" y="175.992" fill="#80E1D7" width="4.155" height="6.331"/>
					<rect x="674.762" y="175.992" fill="#D6FFF1" width="4.155" height="6.331"/>
					<rect x="683.67" y="175.992" fill="#D6FFF1" width="4.155" height="6.331"/>
					<rect x="656.942" y="187.017" fill="#D6FFF1" width="4.156" height="6.331"/>
					<rect x="665.852" y="187.017" fill="#D6FFF1" width="4.155" height="6.331"/>
					<rect x="674.762" y="187.017" fill="#80E1D7" width="4.155" height="6.331"/>
					<rect x="683.67" y="187.017" fill="#D6FFF1" width="4.155" height="6.331"/>
					<rect x="656.942" y="198.042" fill="#80E1D7" width="4.156" height="6.332"/>
					<rect x="665.852" y="198.042" fill="#80E1D7" width="4.155" height="6.332"/>
					<rect x="674.762" y="198.042" fill="#D6FFF1" width="4.155" height="6.332"/>
					<rect x="683.67" y="198.042" fill="#D6FFF1" width="4.155" height="6.332"/>
					<rect x="656.942" y="209.066" fill="#D6FFF1" width="4.156" height="6.333"/>
					<rect x="665.852" y="209.066" fill="#80E1D7" width="4.155" height="6.333"/>
					<rect x="674.762" y="209.066" fill="#D6FFF1" width="4.155" height="6.333"/>
					<rect x="683.67" y="209.066" fill="#80E1D7" width="4.155" height="6.333"/>
				</g>
				<polygon fill="#80E1D7" points="552.905,141.285 552.905,142.136 552.058,142.136 552.058,144.561 566.97,144.561 
					566.97,219.293 542.501,219.293 542.501,148.46 542.501,144.561 542.501,142.136 541.611,142.136 541.611,141.285 				"/>
				<rect x="594.592" y="175.232" fill="#80E1D7" width="20.96" height="44.061"/>
				<g>
					<rect x="503.239" y="165.13" fill="#80E1D7" width="17.037" height="54.163"/>
					<rect x="516.902" y="176.415" fill="#80E1D7" width="18.567" height="42.878"/>
					<rect x="509.368" y="162.957" fill="#80E1D7" width="7.534" height="6.482"/>
					<rect x="518.176" y="175.708" fill="#80E1D7" width="19.792" height="1.586"/>
				</g>
				<rect x="533.474" y="194.806" fill="#80E1D7" width="20.816" height="24.487"/>
				<rect x="466.198" y="174.889" fill="#80E1D7" width="16.932" height="44.404"/>
				<rect x="451.503" y="197.017" fill="#80E1D7" width="22.276" height="22.276"/>
				<rect x="426.975" y="193.377" fill="#80E1D7" width="13.934" height="25.916"/>
				<rect x="438.203" y="211.175" fill="#80E1D7" width="32.933" height="8.118"/>
				<rect x="414.359" y="208.551" fill="#80E1D7" width="16.879" height="10.742"/>
				<rect x="483.129" y="202.905" fill="#80E1D7" width="26.239" height="16.388"/>
				<rect x="560.098" y="212.233" fill="#80E1D7" width="40.873" height="7.06"/>
				<rect x="632.563" y="212.233" fill="#80E1D7" width="40.873" height="7.06"/>
				<polygon fill="#80E1D7" points="599.38,191.506 583.845,191.506 577.274,215.762 599.38,215.762 				"/>
				<rect x="606.561" y="156.213" fill="#80E1D7" width="0.432" height="26.908"/>
				<rect x="608.724" y="165.318" fill="#80E1D7" width="0.577" height="15.878"/>
				<rect x="605.631" y="168.132" fill="#80E1D7" width="7.86" height="7.86"/>
				<rect x="604.305" y="167.521" fill="#80E1D7" width="10.41" height="0.705"/>
				<rect x="611.74" y="196.566" fill="#80E1D7" width="25.396" height="22.727"/>
				<rect x="632.279" y="171.548" fill="#80E1D7" width="16.315" height="43.851"/>
				<rect x="696.001" y="179.791" fill="#80E1D7" width="26.068" height="39.502"/>
				<rect x="687.825" y="204.738" fill="#80E1D7" width="29.721" height="14.555"/>
				<rect x="720.625" y="214.083" fill="#80E1D7" width="19.325" height="5.21"/>
				<rect x="750.392" y="204.738" fill="#80E1D7" width="31.424" height="14.555"/>
				<g>
					<rect x="762.912" y="166.63" fill="#80E1D7" width="39.1" height="52.663"/>
					<rect x="761.9" y="164.609" fill="#80E1D7" width="42.394" height="2.021"/>
					<rect x="783.098" y="159.126" fill="#80E1D7" width="17.183" height="10.677"/>
					<rect x="774.599" y="159.126" fill="#80E1D7" width="2.886" height="6.493"/>
					<rect x="768.538" y="159.126" fill="#80E1D7" width="3.174" height="6.493"/>
				</g>
				<g>
					<rect x="828.891" y="142.381" fill="#80E1D7" width="30.952" height="76.912"/>
					<rect x="828.014" y="141.058" fill="#80E1D7" width="32.708" height="2.174"/>
					<rect x="829.932" y="138.275" fill="#80E1D7" width="28.869" height="10.334"/>
					<rect x="845.159" y="134.047" fill="#80E1D7" width="11.433" height="11.291"/>
					<polygon fill="#80E1D7" points="849.976,137.23 856.592,137.23 856.592,131.287 851.847,131.287 					"/>
					<rect x="853.283" y="126.353" fill="#80E1D7" width="0.642" height="13.237"/>
					<ellipse fill="#80E1D7" cx="853.604" cy="125.668" rx="0.577" ry="0.685"/>
				</g>
				<rect x="855.605" y="187.541" fill="#80E1D7" width="13.852" height="31.752"/>
				<rect x="816.15" y="172.062" fill="#80E1D7" width="15.797" height="47.231"/>
				<polygon fill="#80E1D7" points="824.056,219.293 801.804,219.293 801.804,194.031 820.585,202.352 				"/>
				<rect x="864.908" y="205.574" fill="#80E1D7" width="33.982" height="13.719"/>
				<rect x="886.337" y="164.525" fill="#80E1D7" width="19.74" height="54.768"/>
				<rect x="901.46" y="209.066" fill="#80E1D7" width="32.704" height="10.227"/>
				<rect x="885.328" y="163.523" fill="#80E1D7" width="21.653" height="1.795"/>
				<rect x="902.999" y="155.795" fill="#80E1D7" width="0.432" height="11.036"/>
				<rect x="900.113" y="157.192" fill="#80E1D7" width="0.433" height="8.855"/>
				<polygon fill="#80E1D7" points="913.387,185.158 904.587,185.158 904.587,210.25 917.14,210.25 				"/>
			</g>
		</g>
		<rect x="378.521" y="479.055" clip-path="url(#SVGID_2_)" fill="#FFCDC4" width="559.186" height="124.826"/>
		<g clip-path="url(#SVGID_2_)">
			<rect x="383.528" y="273.782" fill-rule="evenodd" clip-rule="evenodd" fill="#EDBF55" width="567.472" height="25.167"/>
			<polygon fill-rule="evenodd" clip-rule="evenodd" points="427.828,298.949 406.242,298.949 413.242,273.782 434.828,273.782 			
				"/>
			<polygon fill-rule="evenodd" clip-rule="evenodd" points="465.254,298.949 443.668,298.949 450.668,273.782 472.254,273.782 			
				"/>
			<polygon fill-rule="evenodd" clip-rule="evenodd" points="502.68,298.949 481.094,298.949 488.094,273.782 509.68,273.782 			"/>
			<polygon fill-rule="evenodd" clip-rule="evenodd" points="540.105,298.949 518.52,298.949 525.52,273.782 547.105,273.782 			"/>
			<polygon fill-rule="evenodd" clip-rule="evenodd" points="577.531,298.949 555.945,298.949 562.945,273.782 584.531,273.782 			
				"/>
			<polygon fill-rule="evenodd" clip-rule="evenodd" points="614.957,298.949 593.371,298.949 600.371,273.782 621.957,273.782 			
				"/>
			<polygon fill-rule="evenodd" clip-rule="evenodd" points="652.383,298.949 630.797,298.949 637.797,273.782 659.383,273.782 			
				"/>
			<polygon fill-rule="evenodd" clip-rule="evenodd" points="689.809,298.949 668.223,298.949 675.223,273.782 696.809,273.782 			
				"/>
			<polygon fill-rule="evenodd" clip-rule="evenodd" points="727.234,298.949 705.648,298.949 712.648,273.782 734.234,273.782 			
				"/>
			<polygon fill-rule="evenodd" clip-rule="evenodd" points="764.66,298.949 743.074,298.949 750.074,273.782 771.66,273.782 			"/>
			<polygon fill-rule="evenodd" clip-rule="evenodd" points="802.086,298.949 780.5,298.949 787.5,273.782 809.086,273.782 			"/>
			<polygon fill-rule="evenodd" clip-rule="evenodd" points="839.512,298.949 817.926,298.949 824.926,273.782 846.512,273.782 			
				"/>
			<polygon fill-rule="evenodd" clip-rule="evenodd" points="876.938,298.949 855.352,298.949 862.352,273.782 883.938,273.782 			
				"/>
			<polygon fill-rule="evenodd" clip-rule="evenodd" points="914.363,298.949 892.777,298.949 899.777,273.782 921.363,273.782 			
				"/>
			<polygon fill-rule="evenodd" clip-rule="evenodd" points="951.789,298.949 930.203,298.949 937.203,273.782 958.789,273.782 			
				"/>
		</g>
		<g clip-path="url(#SVGID_2_)">
			<path fill="#EFC15C" d="M823.354,243.406c0,0-7.709,13.619,5.31,10.621c0,0-0.771,2.568,0,4.539c0,0,4.369,2.57,7.708-1.798
				l-0.771-6.51C835.602,250.258,837.06,238.096,823.354,243.406z"/>
			<g>
				<path fill="#FE7670" d="M803.72,264.088c0,0,8.23,11.024,16.46-2.945c0,0,3.661-4.982,8.27-6.115c0,0,0.664,4.017,7.385,0.77
					c0,0,16.359,8.668,4.053,25.127l-24.916,0.317c0,0-1.435-7.564,5.966-11.566c0,0-11.705,10.119-19.104,0L803.72,264.088z"/>
			</g>
			<path fill="#DD4D54" d="M828.158,283.381c-0.122,0-0.243-0.06-0.314-0.171c-0.113-0.174-0.063-0.406,0.11-0.519
				c14.438-9.365,9.294-18.936,9.24-19.032c-0.102-0.181-0.037-0.409,0.144-0.511c0.178-0.101,0.407-0.038,0.511,0.144
				c0.057,0.102,5.535,10.284-9.486,20.028C828.299,283.361,828.229,283.381,828.158,283.381z"/>
			<path fill="#DD4D54" d="M814.813,273.616c-0.16,0-0.308-0.103-0.358-0.264c-0.062-0.198,0.049-0.408,0.247-0.469
				c6.442-2.004,9.406-8.269,9.436-8.332c0.086-0.187,0.312-0.269,0.497-0.183c0.188,0.087,0.271,0.31,0.183,0.498
				c-0.124,0.27-3.136,6.63-9.893,8.732C814.887,273.61,814.85,273.616,814.813,273.616z"/>
			<path fill="#061E1E" d="M804.996,295.81c-8.46,0-15.344-6.884-15.344-15.345c0-8.462,6.884-15.345,15.344-15.345
				c8.461,0,15.347,6.883,15.347,15.345C820.343,288.926,813.457,295.81,804.996,295.81z M804.996,268.743
				c-6.462,0-11.72,5.259-11.72,11.722c0,6.461,5.258,11.721,11.72,11.721c6.464,0,11.722-5.26,11.722-11.721
				C816.718,274.002,811.46,268.743,804.996,268.743z"/>
			<g>
				<path fill="#061E1E" d="M956.379,332.097c-8.474,0-15.344,6.521-15.344,14.566c0,0.285,0.012,0.572,0.027,0.855
					c0.47,7.645,7.146,13.705,15.316,13.705c8.172,0,14.85-6.061,15.317-13.705c0.019-0.283,0.028-0.57,0.028-0.855
					C971.725,338.618,964.855,332.097,956.379,332.097z"/>
				<path fill="#061E1E" d="M758.203,332.097c-8.475,0-15.346,6.521-15.346,14.566c0,0.285,0.011,0.572,0.028,0.855
					c0.469,7.645,7.146,13.705,15.317,13.705c8.17,0,14.847-6.061,15.315-13.705c0.019-0.283,0.028-0.57,0.028-0.855
					C773.547,338.618,766.678,332.097,758.203,332.097z"/>
				<g>
					<path fill="#EFC15C" d="M920.905,245.836c0,0-10.957,3.467-7.326,11.571c0,0,1.889,2.847,5.369,1.612l-1.884,6.101l9.52-1.661
						l-0.189-4.398l0.366-1.286c0,0,1.974-2.966-1.819-3.184l-1.208-7.555L920.905,245.836z"/>
					<path fill="#49565F" d="M920.905,245.836c0,0,2.485,9.365,4.036,8.756c0,0,2.293,0.033,0.881,2.699c0,0-0.286,3.814,2.17,2.229
						c0,0,3.652-1.647,2.172-5.18c0,0,2.938-3.616,0.478-5.099c0,0,1.108-2.124-3.107-3.324c0,0-4.517-3.522-6.85-0.002"/>
					<path fill="#EFC15C" d="M893.89,247.497l3.723-5.324c0,0-0.005-6.222,3.325-6.829c0,0,5.716,0.516,3.294,3.468
						c0,0-2.466,2.75-0.721,3.089l2.137,0.167c0,0,1.103,2.295-2.563,1.404c0,0-1.732-0.4-2.262,0.83l-2.108,4.678L893.89,247.497z"
						/>
					<path fill="#00464F" d="M899.846,247.587l-7.122-1.261l-0.569,3.433c0,0-4.082,20.362,16.34,25.856
						c0,0-7.41,6.634-5.608,13.359l29.644-0.294l0.615-2.434l-1.109-19.312c0,0-0.822-4.433-8.095-3.349l-11.433,1.151
						C912.508,264.738,899.001,269.063,899.846,247.587z"/>
					<polygon fill="#24B4B3" points="892.299,248.894 899.809,249.923 899.846,247.587 892.724,246.327 					"/>
				</g>
				<path fill="#EFC15C" d="M972.003,260.39c0,0-1.607-0.026-2.411-5.034c0,0-0.537-11.811-12.169-5.637
					c0,0-4.65,10.02,0.985,12.792c0,0,4.563,1.254,7.247-1.163l-0.18,5.101l3.131,2.504l2.236-0.804l2.147-3.31v-2.773
					L972.003,260.39z"/>
				<path fill="#FFA796" d="M971.232,259.905c0,0,13.089,3.023,18.458,24.971c0,0,1.431,12.646,1.908,20.041
					c0,0-9.544,2.983-17.297-3.579c0,0-5.368-2.504-9.304-1.549l0.716-5.606l-7.865-13.089l7.675-15.972
					C965.523,265.12,972.546,269.926,971.232,259.905z"/>
				<path fill="#DD4D54" d="M963.764,283.123c-0.132,0-0.261-0.07-0.328-0.194c-0.101-0.182-0.034-0.41,0.147-0.509
					c7.753-4.264,3.936-12.377,3.769-12.72c-0.09-0.187-0.012-0.411,0.175-0.501c0.182-0.091,0.409-0.013,0.501,0.174
					c0.043,0.09,4.286,9.102-4.083,13.705C963.887,283.108,963.825,283.123,963.764,283.123z"/>
				<path fill="#DD4D54" d="M972.112,282.649c-0.092,0-0.184-0.033-0.256-0.101c-0.151-0.142-0.159-0.379-0.019-0.53
					c6.036-6.469-0.118-12.989-0.383-13.264c-0.145-0.149-0.14-0.386,0.009-0.53c0.149-0.144,0.387-0.14,0.53,0.009
					c0.07,0.072,6.908,7.313,0.393,14.296C972.313,282.609,972.213,282.649,972.112,282.649z"/>
				<path fill="#4FCCBE" d="M1039.022,237.682c-2.943-2.588-11.007-4.488-14.908-4.854c-47.866-4.485-192.306,0.057-192.306,0.057
					c-28.512-1.118-36.336,14.907-36.336,14.907s-18.131,25.801-26.647,31.678c-14.374,9.915-27.844,13.138-45.657,20.684
					c-13.949,5.908-24.224,32.235-24.224,32.235c-2.237,8.945-2.093,9.691-2.093,9.691c-1.522,9.205,5.306,11.182,5.306,11.182
					h126.948c-0.024-0.457-0.047-0.916-0.047-1.379c0-15.578,11.646-26.016,21.689-25.178c11.443,0.957,19.423,9.6,19.423,25.178
					c0,0.463-0.021,0.922-0.046,1.379h124.614c-0.021-0.457-0.044-0.916-0.044-1.379c0-15.781,9.947-25.043,20.873-25.158
					c14.368-0.158,19.96,11.861,20.566,25.158c0.02,0.463-0.024,0.922-0.048,1.379h20.964c0,0,2.818,0.285,5.067-1.398
					c1.677-1.26,1.653-2.947,1.653-2.947C1070.293,271.774,1041.346,239.725,1039.022,237.682z M867.818,245.929l-23.339,34.24
					h-66.153c11.041-15.654,25.763-33.822,25.763-33.822c6.289-8.386,21.244-8.666,21.244-8.666h39.271
					C872.849,239.36,867.818,245.929,867.818,245.929z M933.086,277.42h-55.625c0,0,7.269-15.744,15.84-27.951
					c0,0,5.311-7.361,15.002-8.572h24.783V277.42z M939.607,277.42v-36.523h42.302c7.731,0,8.29,7.92,8.29,7.92l6.429,28.604
					H939.607z M1001.94,277.42l-5.313-25.251c-1.956-9.223-4.1-10.526-4.1-10.526c9.224-0.559,25.669-0.126,25.669-0.126
					c17.751,2.036,22.688,35.904,22.688,35.904H1001.94z"/>
				<path fill="#061E1E" d="M849.813,332.335c-8.472,0-15.343,6.521-15.343,14.566c0,0.285,0.013,0.572,0.03,0.855
					c0.469,7.643,7.146,13.705,15.313,13.705c8.171,0,14.851-6.063,15.32-13.705c0.017-0.283,0.025-0.57,0.025-0.855
					C865.159,338.856,858.291,332.335,849.813,332.335z"/>
				<path fill="#F0AB16" d="M779.726,330.413h16.623c0,0,5.507,0.307,5.923-4.467v-6.965h-15.896c0,0-6.234-0.729-6.65,3.74V330.413
					z"/>
				<path fill="#046270" d="M870.149,281.706h19.661c0,0,6.513,0.368,7.003-5.285v-8.233h-18.801c0,0-7.374-0.858-7.863,4.424
					V281.706z"/>
				<path fill="#F0AB16" d="M740.077,330.413h-16.623c0,0-5.508,0.307-5.921-4.467v-6.965h15.895c0,0,6.233-0.729,6.649,3.74
					V330.413z"/>
				<path fill="#046270" d="M926.358,288.975c-0.1-1.816-1.59-3.263-3.428-3.263h-12.767c-1.84,0-3.328,1.447-3.427,3.263H926.358z"
					/>
				<path fill="#046270" d="M991.346,288.975c-0.1-1.816-1.589-3.263-3.428-3.263h-12.765c-1.842,0-3.33,1.447-3.429,3.263H991.346z
					"/>
				<rect x="930.99" y="277.42" fill="#24B4B3" width="3.492" height="75.862"/>
				<path fill="#24B4B3" d="M996.628,340.753V277.42h-2.887v75.862c0.282-0.076,0.998-0.02,0.998-0.02
					S996.029,341.425,996.628,340.753z"/>
				<path fill="#061E1E" d="M961.718,250.881c-1.404-0.402-5.727,0.449-4.474-3.758c0,0,2.06-6.083,10.824-5.725
					c0,0,5.095,0.591,10.23,4.026c2.793,1.867,4.207,1.424,13.3-1.969c3.325-1.239,11.094-3.633,11.809,7.875
					c0.25,4.026-1.29,14.828-14.493,7.112c-1.878-1.097-3.39-2.54-8.691-0.313c-3.006,1.259-7.232,1.46-12.689-2.953
					C967.533,255.176,963.455,251.378,961.718,250.881z"/>
				<g>
					<path fill="#EFC15C" d="M893.89,247.497l3.723-5.324c0,0-0.005-6.222,3.325-6.829c0,0,5.716,0.516,3.294,3.468
						c0,0-2.466,2.75-0.721,3.089l2.137,0.167c0,0,1.103,2.295-2.563,1.404c0,0-1.732-0.4-2.262,0.83l-2.108,4.678L893.89,247.497z"
						/>
					<path fill="#00464F" d="M900.498,256.328c-0.529-2.289-0.794-5.15-0.652-8.741l-7.122-1.261l-0.569,3.433
						c0,0-0.555,2.785-0.229,6.568H900.498z"/>
					<polygon fill="#24B4B3" points="892.299,248.894 899.809,249.923 899.846,247.587 892.724,246.327 					"/>
				</g>
			</g>
			<path fill="#EFC15C" d="M801.177,262.871c0,0,10.664,1.165,8.96,2.768c-0.94,0.887-2.162,0.199-5.141-0.519
				c0,0,5.746,2.131,1.969,3.018c-0.982,0.231-4.353-3.891-3.938,0.907c0,0,0.103,2.979-3.659,2.182c0,0-2.956,0.883-3.475-3.775
				C795.893,267.452,795.313,263.783,801.177,262.871z"/>
			<path fill="#683037" d="M823.296,246.443c0,0-3.942-6.08,5.138-8.222c0,0,8.565-2.74,9.593,8.222c0,0,1.179,7.257-3.165,6.208
				c-1.778-0.43-4.316-2.541-2.841-6.5c0.139-0.371,0.367-0.708,0.058-0.669c0,0-0.351-0.001-1.514,0.539
				C828.296,247.074,824.712,248.311,823.296,246.443z"/>
			<path fill="#24B4B3" d="M911.095,276.225c-2.06,0-3.728-0.219-3.859-0.237c-0.205-0.028-0.35-0.216-0.322-0.422
				c0.027-0.205,0.222-0.352,0.422-0.321c0.063,0.009,6.159,0.807,9.414-0.662c0.187-0.085,0.411-0.001,0.496,0.188
				c0.085,0.189,0.001,0.411-0.188,0.496C915.374,276.026,913.057,276.225,911.095,276.225z"/>
		</g>
		<g clip-path="url(#SVGID_2_)">
			<rect x="516.666" y="218.667" fill="#DD4D54" width="419.667" height="4.333"/>
			<g>
				<g>
					<path fill="#00464F" d="M845.317,190.331c0,0-8.237,18.399,5.274,18.386c13.51-0.017,4.733-19.022,4.733-19.022
						s3.128-1.381-0.514-11.635c-3.639-10.253-5.26-10.253-6.766-10.251c-1.903,0.003-3.672,4.446-2.364,11.263
						C845.682,179.071,840.936,187.583,845.317,190.331z"/>
					<g>
						<polygon fill="#242B2B" points="851.804,220.912 850.471,193.208 849.199,220.913 						"/>
						<polygon fill="#242B2B" points="851.014,204.823 846.097,199.092 849.955,205.583 						"/>
					</g>
				</g>
				<g>
					<path fill="#00464F" d="M890.892,194.889c0,0,7.041,15.636-4.453,15.648c-11.494,0.013-4.062-16.172-4.062-16.172
						s-2.662-1.167,0.417-9.896c3.074-8.73,4.453-8.732,5.736-8.733c1.619-0.001,3.131,3.775,2.03,9.575
						C890.561,185.31,894.612,192.543,890.892,194.889z"/>
					<g>
						<polygon fill="#242B2B" points="885.431,220.913 886.512,197.346 887.647,220.912 						"/>
						<polygon fill="#242B2B" points="886.072,207.227 890.244,202.342 886.974,207.871 						"/>
					</g>
				</g>
			</g>
			<g>
				<g>
					<path fill="#00464F" d="M718.204,190.331c0,0-8.237,18.399,5.274,18.386c13.51-0.017,4.733-19.022,4.733-19.022
						s3.128-1.381-0.514-11.635c-3.639-10.253-5.26-10.253-6.766-10.251c-1.903,0.003-3.672,4.446-2.364,11.263
						C718.568,179.071,713.822,187.583,718.204,190.331z"/>
					<g>
						<polygon fill="#242B2B" points="724.69,220.912 723.357,193.208 722.086,220.913 						"/>
						<polygon fill="#242B2B" points="723.9,204.823 718.983,199.092 722.842,205.583 						"/>
					</g>
				</g>
				<g>
					<path fill="#00464F" d="M763.778,194.889c0,0,7.041,15.636-4.453,15.648c-11.494,0.013-4.062-16.172-4.062-16.172
						s-2.662-1.167,0.417-9.896c3.074-8.73,4.453-8.732,5.736-8.733c1.619-0.001,3.131,3.775,2.03,9.575
						C763.447,185.31,767.499,192.543,763.778,194.889z"/>
					<g>
						<polygon fill="#242B2B" points="758.317,220.913 759.398,197.346 760.534,220.912 						"/>
						<polygon fill="#242B2B" points="758.959,207.227 763.131,202.342 759.86,207.871 						"/>
					</g>
				</g>
			</g>
			<g>
				<g>
					<path fill="#00464F" d="M579.909,190.331c0,0-8.237,18.399,5.274,18.386c13.51-0.017,4.733-19.022,4.733-19.022
						s3.128-1.381-0.514-11.635c-3.639-10.253-5.26-10.253-6.766-10.251c-1.903,0.003-3.672,4.446-2.364,11.263
						C580.273,179.071,575.527,187.583,579.909,190.331z"/>
					<g>
						<polygon fill="#242B2B" points="586.396,220.912 585.063,193.208 583.791,220.913 						"/>
						<polygon fill="#242B2B" points="585.605,204.823 580.688,199.092 584.547,205.583 						"/>
					</g>
				</g>
				<g>
					<path fill="#00464F" d="M625.483,194.889c0,0,7.041,15.636-4.453,15.648c-11.494,0.013-4.062-16.172-4.062-16.172
						s-2.662-1.167,0.417-9.896c3.074-8.73,4.453-8.732,5.736-8.733c1.619-0.001,3.131,3.775,2.03,9.575
						C625.152,185.31,629.204,192.543,625.483,194.889z"/>
					<g>
						<polygon fill="#242B2B" points="620.022,220.913 621.104,197.346 622.239,220.912 						"/>
						<polygon fill="#242B2B" points="620.664,207.227 624.836,202.342 621.565,207.871 						"/>
					</g>
				</g>
			</g>
		</g>
		<g clip-path="url(#SVGID_2_)">
			<circle fill-rule="evenodd" clip-rule="evenodd" cx="465.609" cy="246.541" r="8.818"/>
			<circle fill-rule="evenodd" clip-rule="evenodd" cx="374.56" cy="246.541" r="8.819"/>
			<circle fill-rule="evenodd" clip-rule="evenodd" cx="522.782" cy="246.541" r="8.818"/>
			<circle fill-rule="evenodd" clip-rule="evenodd" cx="418.846" cy="246.541" r="8.819"/>
			<path fill="#EFC15C" d="M484.592,189.225c0,0,4.266,7.535-2.938,5.876c0,0,0.427,1.42,0,2.511c0,0-2.415,1.422-4.263-0.995
				l0.426-3.602C477.817,193.016,477.011,186.288,484.592,189.225z"/>
			<g>
				<path fill="#046270" d="M495.456,200.668c0,0-4.554,6.099-9.107-1.629c0,0-2.026-2.756-4.573-3.383c0,0-0.585,2.052-4.301,0.256
					c0,0-8.838,4.965-2.028,14.072l13.786,0.174c0,0,0.793-4.185-3.301-6.398c0,0,6.475,5.598,10.569,0L495.456,200.668z"/>
			</g>
			<path fill="#24B4B3" d="M481.934,211.356c0.072,0,0.143-0.036,0.186-0.102c0.067-0.102,0.038-0.239-0.064-0.306
				c-7.977-5.174-5.136-10.458-5.107-10.512c0.061-0.106,0.022-0.242-0.085-0.301c-0.107-0.06-0.241-0.022-0.301,0.084
				c-0.033,0.057-3.069,5.702,5.251,11.1C481.851,211.344,481.892,211.356,481.934,211.356z"/>
			<path fill="#24B4B3" d="M489.319,205.952c0.095,0,0.183-0.061,0.211-0.155c0.037-0.117-0.028-0.24-0.145-0.278
				c-3.555-1.104-5.197-4.566-5.214-4.601c-0.051-0.11-0.182-0.157-0.294-0.108c-0.111,0.052-0.159,0.184-0.107,0.295
				c0.068,0.149,1.736,3.673,5.483,4.838C489.275,205.949,489.297,205.952,489.319,205.952z"/>
			<path fill="#061E1E" d="M486.897,207.91c0-3.676,2.991-6.667,6.669-6.667c3.676,0,6.669,2.991,6.669,6.667
				c0,3.677-2.993,6.67-6.669,6.67C489.888,214.58,486.897,211.587,486.897,207.91z M488.471,207.91
				c0,2.809,2.286,5.094,5.095,5.094c2.805,0,5.094-2.286,5.094-5.094c0-2.808-2.289-5.092-5.094-5.092
				C490.757,202.817,488.471,205.102,488.471,207.91z"/>
			<path fill="#EFC15C" d="M495.227,200.265c0,0-4.636,0.505-3.894,1.203c0.409,0.385,0.938,0.085,2.234-0.226
				c0,0-2.497,0.926-0.858,1.312c0.43,0.1,1.894-1.691,1.712,0.394c0,0-0.042,1.294,1.591,0.949c0,0,1.286,0.384,1.51-1.641
				C497.522,202.255,497.775,200.66,495.227,200.265z"/>
			
				<rect x="367.317" y="204.115" transform="matrix(-0.972 0.2351 -0.2351 -0.972 776.9628 323.3658)" width="3.776" height="7.767"/>
			<path fill="#F0AB16" d="M357.491,197.332h33.558c-1.684,1.355-3.064,3.001-4.468,4.669c-0.965,1.146-1.921,2.192-3.16,3.055
				c-0.617,0.429-1.235,0.851-1.839,1.294H359.51c-1.245,0-1.909-0.422-2.253-1.6l-2.018-5.82
				C354.808,197.398,356.248,197.332,357.491,197.332z"/>
			<g>
				<path fill="none" d="M422.867,186.371c-0.005-0.679-0.191-0.862-0.86-0.857c-3.23,0.024-6.462-0.009-9.693-0.009
					c-4.372,0-7.993,1.715-11.01,4.824c-3.074,3.169-6.019,6.45-8.853,9.834c-1.577,1.882-3.16,3.76-4.737,5.643
					c-0.108,0.13-0.201,0.273-0.386,0.529c0.49,0,0.854,0,1.217,0c11.115,0.006,22.229,0.012,33.344,0.016
					c1.099,0.001,1.127-0.002,1.081-1.114C422.706,198.949,422.917,192.659,422.867,186.371z"/>
				<path fill="none" d="M447.843,188.918c-1.749-1.828-3.94-2.711-6.39-3.052c-4.16-0.579-8.347-0.414-12.525-0.432
					c-0.659-0.002-1.317,0.104-1.974,0.083c-0.522-0.016-0.596,0.214-0.593,0.656c0.015,2.619,0.006,5.239,0.006,7.857
					c0,3.818,0.014,7.638-0.014,11.456c-0.003,0.645,0.13,0.874,0.835,0.866c3.501-0.041,7.001-0.019,10.501-0.019
					c3.524,0,7.049-0.006,10.574,0.006c0.473,0.002,7.215,0.448,9.826-0.221c1.146-0.294-1.955-5.821-2.248-6.254
					C453.309,196.118,450.995,192.212,447.843,188.918z"/>
				<path fill="none" d="M498.403,196.77c-2.674-3.154-5.321-6.345-8.437-9.08c-1.633-1.434-3.534-2.46-5.671-3.025
					c-2.667-0.705-5.374-0.891-8.117-0.882c-4.773,0.016-9.545-0.022-14.318-0.019c-0.674,0.001-1.343-0.002-2.021,0.225
					c-1.57,0.528-1.859,1.664-1.202,3.223c0.552,1.305,1.48,2.394,2.265,3.563c1.813,2.701,3.647,5.387,5.484,8.073
					c1.368,2.003,2.754,3.994,4.13,5.993c0.48,0.697,0.99,1.378,1.414,2.109c0.417,0.722,0.922,1.031,1.808,1.024
					c6.022-0.044,12.043-0.022,18.064-0.023c4.968,0,9.936,0.001,14.905-0.005c0.231,0,0.488,0.106,0.73-0.136
					c-0.809-1.023-1.604-2.056-2.432-3.063C502.816,202.08,500.634,199.404,498.403,196.77z"/>
				<path fill="#046270" d="M566.236,242.766c-0.613-0.295-1.273-0.466-1.958-0.524c-0.252-0.02-0.503,0.001-0.413-0.398
					c0.288-1.302-0.029-2.545-0.353-3.8c-0.875-3.398-1.67-6.815-2.572-10.205c-0.338-1.271-0.479-2.623-1.208-3.767
					c-1.055-1.655-2.599-2.508-4.496-3.013c-2.33-0.618-4.687-1.146-7.014-1.777c-3.499-0.948-29.02-7.157-37.56-12.608
					c-0.892-0.569-14.633-17.893-17.414-20.609c-1.898-1.854-4.018-3.272-6.557-4.144c-2.464-0.847-5-1.023-7.54-1.082
					c-4.601-0.107-9.206-0.064-13.81-0.066c-16.995-0.004-33.988,0.002-50.983-0.004c-2.67-0.001-5.337,0-7.971,0.515
					c-2.504,0.489-4.752,1.469-6.724,3.159c-0.836,0.716-1.563,1.514-2.351,2.264c-1.984,1.885-3.698,4.009-5.489,6.069
					c-0.637,0.734-1.41,1.348-1.975,2.153c-0.355,0.507-9.723,12.242-13.06,13.77c-3.715,1.701-7.871,1.951-11.563,3.688
					c-0.195,0.092-0.831,0.421-1.009,0.519c-0.99,0.543-1.972,1.099-2.956,1.649c-0.584,0.44-1.157,0.898-1.754,1.316
					c-0.854,0.597-1.613,1.288-2.349,2.026c-0.95,0.952-1.751,2.008-2.537,3.09c-1.031,1.42-1.774,2.972-2.354,4.626
					c-0.809,2.311-1.683,13.331-1.708,14.771c-0.037,2.126-0.186,4.26,0.093,6.378c0.212,1.612,1.865,2.987,3.504,2.981
					c0.075,0,3.712-0.001,9.973-0.004c-0.299-1.015-0.466-2.086-0.466-3.198c0-6.238,5.057-11.296,11.296-11.296
					c6.238,0,11.295,5.058,11.295,11.296c0,1.109-0.167,2.177-0.464,3.189c18.751-0.007,43.75-0.019,69.126-0.033
					c-0.291-1.002-0.455-2.06-0.455-3.157c0-6.238,5.056-11.296,11.295-11.296s11.296,5.058,11.296,11.296
					c0,1.093-0.164,2.146-0.453,3.145c46.464-0.029,88.472-0.066,88.795-0.109c1.015-0.133,2.553-1.851,2.661-2.881
					C568.232,245.017,567.917,243.571,566.236,242.766z M421.889,206.351c-11.115-0.004-22.229-0.01-33.344-0.016
					c-0.363,0-0.727,0-1.217,0c0.186-0.256,0.278-0.399,0.386-0.529c1.578-1.883,3.16-3.761,4.737-5.643
					c2.833-3.384,5.779-6.665,8.853-9.834c3.017-3.109,6.638-4.824,11.01-4.824c3.231,0,6.463,0.033,9.693,0.009
					c0.669-0.005,0.855,0.178,0.86,0.857c0.049,6.289-0.161,12.578,0.102,18.866C423.016,206.349,422.988,206.352,421.889,206.351z
					 M458.089,206.119c-2.611,0.669-9.353,0.223-9.826,0.221c-3.525-0.012-7.05-0.006-10.574-0.006c-3.5,0-7-0.022-10.501,0.019
					c-0.705,0.008-0.838-0.221-0.835-0.866c0.027-3.818,0.014-7.638,0.014-11.456c0-2.619,0.008-5.238-0.006-7.857
					c-0.003-0.442,0.071-0.672,0.593-0.656c0.657,0.021,1.315-0.085,1.974-0.083c4.179,0.018,8.365-0.147,12.525,0.432
					c2.45,0.341,4.641,1.224,6.39,3.052c3.152,3.294,5.466,7.2,7.999,10.947C456.134,200.298,459.234,205.825,458.089,206.119z
					 M506.708,207.946c-4.969,0.006-9.937,0.005-14.905,0.005c-6.021,0-12.042-0.021-18.064,0.023
					c-0.886,0.007-1.391-0.302-1.808-1.024c-0.423-0.73-0.934-1.412-1.414-2.109c-1.375-1.999-2.762-3.99-4.13-5.993
					c-1.837-2.686-3.671-5.373-5.484-8.073c-0.785-1.169-1.713-2.258-2.265-3.563c-0.658-1.559-0.369-2.694,1.202-3.223
					c0.678-0.228,1.346-0.224,2.021-0.225c4.772-0.003,9.544,0.035,14.318,0.019c2.743-0.009,5.45,0.177,8.117,0.882
					c2.138,0.564,4.039,1.591,5.671,3.025c3.115,2.735,5.762,5.926,8.437,9.08c2.23,2.634,4.413,5.31,6.604,7.977
					c0.828,1.006,1.623,2.039,2.432,3.063C507.196,208.052,506.939,207.946,506.708,207.946z"/>
			</g>
			<path fill="#F0AB16" d="M459.544,207.973h-8.851c0,0-2.932,0.166-3.151-2.395v-3.732h8.463c0,0,3.319-0.391,3.539,2.004V207.973z
				"/>
			<path fill="#F0AB16" d="M433.027,211.403c0.047-0.857,0.75-1.539,1.617-1.539h6.021c0.869,0,1.572,0.682,1.618,1.539H433.027z"/>
			<path fill="#EDF2F2" d="M479.867,194.437c0.002,0.001,0.004,0.002,0.005,0.004c0.031,0.021,0.794,0.537,1.744,0.819
				c0.041,0.014,0.084-0.012,0.097-0.053c0.013-0.041-0.011-0.084-0.052-0.098c-0.926-0.274-1.693-0.792-1.702-0.799
				c-0.035-0.023-0.084-0.014-0.109,0.021C479.828,194.365,479.835,194.413,479.867,194.437z"/>
			<path fill="none" d="M459.84,183.989c0.678-0.228,1.346-0.224,2.021-0.225c4.772-0.003,9.544,0.035,14.318,0.019
				c2.743-0.009,5.45,0.177,8.117,0.882c2.138,0.564,4.039,1.591,5.671,3.025c3.115,2.735,5.762,5.926,8.437,9.08
				c2.23,2.634,4.413,5.31,6.604,7.977c0.828,1.006,1.623,2.039,2.432,3.063c-0.242,0.242-0.499,0.136-0.73,0.136
				c-4.969,0.006-9.937,0.005-14.905,0.005c-6.021,0-12.042-0.021-18.064,0.023c-0.886,0.007-1.391-0.302-1.808-1.024
				c-0.423-0.73-0.934-1.412-1.414-2.109c-1.375-1.999-2.762-3.99-4.13-5.993c-1.837-2.686-3.671-5.373-5.484-8.073
				c-0.785-1.169-1.713-2.258-2.265-3.563C457.981,185.653,458.27,184.518,459.84,183.989z"/>
			<path fill="none" d="M392.452,200.163c2.833-3.384,5.779-6.665,8.853-9.834c3.017-3.109,6.638-4.824,11.01-4.824
				c3.231,0,6.463,0.033,9.693,0.009c0.669-0.005,0.855,0.178,0.86,0.857c0.049,6.289-0.161,12.578,0.102,18.866
				c0.046,1.112,0.019,1.116-1.081,1.114c-11.115-0.004-22.229-0.01-33.344-0.016c-0.363,0-0.727,0-1.217,0
				c0.186-0.256,0.278-0.399,0.386-0.529C389.292,203.923,390.875,202.045,392.452,200.163z"/>
			<path fill="none" d="M426.366,194.031c0-2.619,0.008-5.238-0.006-7.857c-0.003-0.442,0.071-0.672,0.593-0.656
				c0.657,0.021,1.315-0.085,1.974-0.083c4.179,0.018,8.365-0.147,12.525,0.432c2.45,0.341,4.641,1.224,6.39,3.052
				c3.152,3.294,5.466,7.2,7.999,10.947c0.293,0.434,3.393,5.96,2.248,6.254c-2.611,0.669-9.353,0.223-9.826,0.221
				c-3.525-0.012-7.05-0.006-10.574-0.006c-3.5,0-7-0.022-10.501,0.019c-0.705,0.008-0.838-0.221-0.835-0.866
				C426.38,201.668,426.366,197.849,426.366,194.031z"/>
			<path fill="#F0AB16" d="M519.203,237.211H508.54c0,0-3.533,0.196-3.801-2.867v-4.467h10.199c0,0,3.999-0.467,4.265,2.4V237.211z"
				/>
			<path fill="#F0AB16" d="M541.34,237.211h10.665c0,0,3.533,0.196,3.801-2.867v-4.467h-10.199c0,0-3.999-0.467-4.267,2.4V237.211z"
				/>
			<rect x="418.847" y="206.351" fill="#F0AB16" width="1.699" height="43.423"/>
			<path fill="#EFC15C" d="M479.646,192.113c0,0-0.449-1.156-1.385-0.761c0,0-1.285,0.606,0.587,1.523L479.646,192.113z"/>
			<path fill="#49565F" d="M484.854,189.673c0,0-4.191,2.119-4.561,1.316c0,0-0.872-0.879-1.27,0.547c0,0-1.219,1.368-1.59-0.109
				c0,0-0.799-1.958,0.987-2.547c0,0,0.154-2.332,1.593-1.865c0,0,0.323-1.129,2.322,0.112c0,0,2.921,0.592,2.575,2.657"/>
		</g>
		<g clip-path="url(#SVGID_2_)">
			<path opacity="0.5" fill="#24B4B3" d="M862.534,115.116c-2.452,0-43.718,0.273-46.312,0.19c-0.188-0.006-0.285-0.279-0.101-0.372
				c1.634-0.81,3.488-0.648,5.188-1.22c0.999-0.338,1.614-0.99,2.308-1.74c0.599-0.65,1.294-1.146,2.148-1.402
				c0.753-0.227,1.569-0.257,2.337-0.074c0.836,0.2,1.564,0.679,2.363,0.981c1.981,0.75,3.907,0.038,5.325-1.429
				c1.167-1.21,2.314-2.35,3.902-3.001c1.327-0.545,2.803-0.658,4.133-0.058c1.514,0.686,2.551,2.065,3.973,2.895
				c1.688,0.985,3.703,0.752,5.563,1.049c1.866,0.298,3.291,1.865,4.924,2.768c0.558,0.309,1.128,0.567,1.779,0.551
				c0.366-0.01,0.725-0.108,1.084-0.153c0.562-0.069,1.096-0.053,1.476,0.416C862.715,114.633,862.696,115.116,862.534,115.116z"/>
			<path opacity="0.5" fill="#24B4B3" d="M587.396,90.259c-2.993,0-53.351,0.331-56.515,0.231c-0.229-0.007-0.35-0.342-0.125-0.455
				c1.995-0.986,4.26-0.788,6.332-1.486c1.22-0.413,1.969-1.208,2.815-2.124c0.731-0.792,1.579-1.397,2.62-1.71
				c0.922-0.276,1.918-0.312,2.854-0.091c1.022,0.244,1.909,0.83,2.884,1.198c2.419,0.913,4.77,0.044,6.497-1.745
				c1.424-1.475,2.826-2.868,4.763-3.663c1.62-0.666,3.42-0.804,5.044-0.069c1.847,0.837,3.114,2.52,4.849,3.531
				c2.058,1.204,4.519,0.918,6.789,1.281c2.277,0.364,4.016,2.275,6.007,3.378c0.682,0.377,1.377,0.691,2.173,0.672
				c0.446-0.012,0.883-0.131,1.323-0.187c0.685-0.085,1.337-0.066,1.797,0.507C587.615,89.667,587.592,90.259,587.396,90.259z"/>
			<path opacity="0.5" fill="#24B4B3" d="M706.524,54.67c-0.04,0.116-54.881,0-54.188,0c0.315,0-0.479-0.473-0.17-0.625
				c1.785-0.886,3.738-0.91,5.683-1.089c1.134-0.103,2.299-0.268,3.318-0.805c1.035-0.542,1.68-1.482,2.413-2.35
				c2.266-2.69,5.871-4.093,9.365-3.547c3.897,0.61,6.972,3.581,10.876,4.127c2.349,0.328,4.566-0.58,6.861-0.9
				c1.888-0.262,3.46,0.105,5.149,0.942c1.237,0.612,2.382,1.13,3.778,1.227c1.074,0.075,2.152-0.048,3.229-0.059
				c1.723-0.017,3.424,0.731,4.749,1.898C707.763,53.645,708.315,54.67,706.524,54.67z"/>
		</g>
	</g>
	<g>
		<circle fill-rule="evenodd" clip-rule="evenodd" cx="266.957" cy="488.422" r="20.749"/>
		<circle fill-rule="evenodd" clip-rule="evenodd" cx="543.22" cy="488.422" r="20.748"/>
		<path fill="#EFC15C" d="M501.649,363.693c0,0-1.975-0.031-2.959-6.174c0,0-0.654-14.477-14.916-6.908
			c0,0-5.705,12.281,1.205,15.686c0,0,5.598,1.533,8.887-1.43l-0.225,6.254l3.84,3.07l2.742-0.988l2.639-4.059v-3.398
			L501.649,363.693z"/>
		<path fill="#FE7670" d="M500.704,363.1c0,0,16.047,3.707,22.623,30.611c0,0,1.754,15.504,2.342,24.568
			c0,0-11.701,3.654-21.201-4.387c0,0-6.584-3.072-11.406-1.902l0.875-6.871l-9.643-16.045l9.412-19.58
			C493.706,369.494,502.315,375.383,500.704,363.1z"/>
		<path fill="#DD4D54" d="M491.548,391.594c-0.172,0-0.34-0.092-0.43-0.256c-0.129-0.238-0.043-0.535,0.193-0.666
			c9.465-5.203,4.807-15.133,4.605-15.553c-0.119-0.244-0.016-0.539,0.229-0.654c0.242-0.121,0.537-0.018,0.656,0.227
			c0.053,0.109,5.27,11.184-5.018,16.842C491.71,391.574,491.626,391.594,491.548,391.594z"/>
		<path fill="#DD4D54" d="M501.782,391.012c-0.119,0-0.238-0.043-0.336-0.131c-0.197-0.186-0.207-0.494-0.021-0.693
			c7.369-7.896-0.146-15.881-0.471-16.217c-0.188-0.195-0.186-0.508,0.012-0.693c0.193-0.188,0.506-0.184,0.693,0.01
			c0.086,0.09,8.492,8.99,0.484,17.568C502.046,390.961,501.913,391.012,501.782,391.012z"/>
		<path fill="#EFC15C" d="M384.848,345.674c0,0-10.278,18.15,7.078,14.156c0,0-1.029,3.42,0,6.047c0,0,5.817,3.426,10.269-2.396
			l-1.026-8.674C401.169,354.807,403.111,338.6,384.848,345.674z"/>
		<g>
			<path fill="#046270" d="M358.681,373.24c0,0,10.969,14.689,21.938-3.924c0,0,4.878-6.643,11.016-8.15c0,0,1.41,4.945,10.36,0.617
				c0,0,21.29,11.959,4.886,33.896l-33.208,0.418c0,0-1.91-10.078,7.951-15.412c0,0-15.595,13.484-25.458,0L358.681,373.24z"/>
		</g>
		<path fill="#24B4B3" d="M391.253,398.984c-0.174,0-0.346-0.088-0.449-0.244c-0.161-0.246-0.09-0.578,0.158-0.736
			c19.214-12.465,12.372-25.195,12.3-25.322c-0.145-0.256-0.053-0.584,0.205-0.727c0.257-0.143,0.581-0.055,0.727,0.203
			c0.076,0.137,7.391,13.734-12.652,26.738C391.453,398.955,391.352,398.984,391.253,398.984z"/>
		<path fill="#24B4B3" d="M373.461,385.967c-0.228,0-0.439-0.145-0.509-0.373c-0.088-0.283,0.07-0.58,0.351-0.67
			c8.562-2.658,12.522-10.998,12.56-11.082c0.125-0.266,0.438-0.379,0.708-0.262c0.267,0.127,0.383,0.443,0.259,0.711
			c-0.165,0.359-4.184,8.848-13.209,11.654C373.568,385.961,373.515,385.967,373.461,385.967z"/>
		<path fill="#061E1E" d="M363.231,406.75c-8.855,0-16.064-7.209-16.064-16.066c0-8.855,7.209-16.063,16.064-16.063
			c8.86,0,16.064,7.207,16.064,16.063C379.295,399.541,372.092,406.75,363.231,406.75z M363.231,378.416
			c-6.76,0-12.268,5.504-12.268,12.268s5.508,12.27,12.268,12.27c6.768,0,12.273-5.506,12.273-12.27S370,378.416,363.231,378.416z"
			/>
		<path fill="#EFC15C" d="M359.232,372.268c0,0,11.167,1.219,9.382,2.898c-0.985,0.926-2.261,0.205-5.383-0.545
			c0,0,6.014,2.232,2.065,3.16c-1.033,0.242-4.56-4.074-4.126,0.949c0,0,0.106,3.117-3.83,2.285c0,0-3.095,0.924-3.639-3.955
			C353.702,377.061,353.094,373.221,359.232,372.268z"/>
		<rect x="658.252" y="381.542" transform="matrix(0.972 0.2349 -0.2349 0.972 110.3939 -144.7815)" width="9.094" height="18.71"/>
		<path fill="#046270" d="M691.015,365.203h-80.834c4.055,3.264,7.381,7.229,10.762,11.246c2.328,2.762,4.631,5.281,7.615,7.359
			c1.484,1.033,2.973,2.051,4.428,3.119h53.166c3,0,4.6-1.016,5.428-3.854l4.863-14.02
			C697.479,365.363,694.011,365.203,691.015,365.203z"/>
		<path fill="#24B4B3" d="M707.712,468.906c-0.059-3.471-2.164-30.016-4.113-35.582c-1.396-3.984-3.184-7.721-5.67-11.145
			c-1.893-2.605-3.82-5.15-6.109-7.443c-1.771-1.779-3.602-3.443-5.656-4.881c-1.441-1.008-2.82-2.109-4.229-3.17
			c-2.369-1.326-4.734-2.664-7.119-3.973c-0.426-0.234-1.959-1.027-2.43-1.25c-8.895-4.186-18.902-4.787-27.854-8.885
			c-8.039-3.68-30.604-31.949-31.459-33.168c-1.363-1.941-3.223-3.42-4.758-5.188c-4.314-4.963-8.443-10.078-13.223-14.619
			c-1.898-1.807-3.648-3.729-5.662-5.453c-4.75-4.073-10.168-6.432-16.199-7.61c-6.344-1.239-12.771-1.243-19.201-1.24
			c-40.938,0.015-81.876,0-122.812,0.011c-11.088,0.004-22.183-0.099-33.266,0.16c-6.117,0.142-12.226,0.565-18.162,2.605
			c-6.115,2.101-11.223,5.517-15.796,9.984c-6.697,6.543-39.798,48.271-41.945,49.643c-20.576,13.133-82.046,28.088-90.478,30.373
			c-5.609,1.521-11.282,2.791-16.894,4.281c-4.568,1.215-8.29,3.268-10.831,7.256c-1.754,2.756-2.094,6.012-2.908,9.074
			c-2.174,8.166-4.092,16.396-6.196,24.582c-0.778,3.023-1.543,6.018-0.849,9.154c0.213,0.963-0.391,0.912-0.999,0.959
			c-1.646,0.137-3.235,0.551-4.716,1.262c-4.045,1.939-4.808,5.424-4.381,9.467c0.262,2.48,3.963,6.619,6.409,6.939
			c1.748,0.234,3.521,0.383,5.282,0.389c16.93,0.037,502.192,0.01,503.56,0.014c3.949,0.012,7.932-3.299,8.441-7.182
			C708.161,479.168,707.802,474.027,707.712,468.906z M441.912,349.406c-4.368,6.506-8.787,12.977-13.21,19.447
			c-3.296,4.826-6.635,9.621-9.949,14.436c-1.155,1.682-2.384,3.32-3.404,5.082c-1.007,1.738-2.222,2.482-4.357,2.467
			c-14.503-0.105-29.009-0.055-43.512-0.057c-11.969,0-23.937,0.004-35.905-0.01c-0.555-0.002-1.175,0.254-1.759-0.328
			c1.951-2.467,3.863-4.955,5.855-7.379c5.28-6.424,10.536-12.869,15.912-19.215c6.439-7.598,12.817-15.283,20.32-21.873
			c3.932-3.453,8.511-5.926,13.661-7.287c6.423-1.697,12.946-2.145,19.552-2.123c11.497,0.037,22.994-0.055,34.492-0.045
			c1.623,0,3.234-0.008,4.865,0.541c3.783,1.271,4.479,4.008,2.894,7.762C446.039,343.969,443.801,346.592,441.912,349.406z
			 M523.128,386.932c-8.432-0.098-16.863-0.045-25.297-0.045c-8.49,0-16.98-0.014-25.471,0.014
			c-1.141,0.006-17.38,1.08-23.668-0.531c-2.762-0.707,4.706-14.021,5.413-15.064c6.103-9.027,11.673-18.434,19.267-26.371
			c4.214-4.402,9.492-6.529,15.393-7.352c10.021-1.395,20.107-0.996,30.172-1.039c1.588-0.006,3.174,0.25,4.756,0.201
			c1.258-0.041,1.438,0.514,1.43,1.578c-0.035,6.309-0.016,12.619-0.016,18.93c0,9.197-0.033,18.396,0.031,27.596
			C525.149,386.4,524.827,386.951,523.128,386.932z M616.212,386.891c-26.775,0.012-53.545,0.025-80.318,0.037
			c-2.65,0.002-2.715-0.004-2.604-2.686c0.633-15.145,0.127-30.295,0.244-45.443c0.012-1.635,0.459-2.078,2.072-2.064
			c7.781,0.059,15.568-0.021,23.35-0.023c10.531,0,19.252,4.131,26.521,11.621c7.402,7.633,14.498,15.539,21.324,23.689
			c3.799,4.533,7.609,9.059,11.41,13.594c0.264,0.313,0.484,0.658,0.932,1.275C617.964,386.891,617.087,386.891,616.212,386.891z"/>
		<path fill-rule="evenodd" clip-rule="evenodd" fill="#243230" d="M406.629,475.832c0.162,0.104,0.51,0.184,0.235,0.428
			c-0.266,0.236-0.323-0.088-0.384-0.283C406.53,475.928,406.58,475.881,406.629,475.832z"/>
		<path fill-rule="evenodd" clip-rule="evenodd" fill="#243230" d="M423.195,475.736c-0.073,0.039-0.146,0.086-0.224,0.102
			c-0.026,0.004-0.069-0.07-0.104-0.107c0.074-0.037,0.145-0.086,0.221-0.102C423.114,475.621,423.158,475.695,423.195,475.736z"/>
		<path fill-rule="evenodd" clip-rule="evenodd" fill="#243230" d="M406.48,475.977c-0.207-0.107-0.348-0.23-0.124-0.457
			c0.09,0.104,0.182,0.211,0.272,0.313C406.58,475.881,406.53,475.928,406.48,475.977z"/>
		<path fill="#046270" d="M445.186,390.836h21.32c0,0,7.063,0.4,7.591-5.77v-8.992h-20.384c0,0-7.996-0.938-8.527,4.828V390.836z"/>
		<path fill="#80E1D7" d="M509.062,399.096c-0.113-2.063-1.805-3.703-3.895-3.703h-14.506c-2.092,0-3.787,1.641-3.898,3.703H509.062
			z"/>
		<path fill="#EDF2F2" d="M497.396,361.316c-0.002,0.008-0.004,0.01-0.008,0.014c-0.053,0.084-1.313,2.121-3.262,3.803
			c-0.082,0.072-0.213,0.061-0.287-0.023c-0.072-0.084-0.064-0.215,0.021-0.287c1.9-1.639,3.168-3.684,3.182-3.707
			c0.059-0.094,0.182-0.125,0.281-0.066C497.413,361.105,497.444,361.225,497.396,361.316z"/>
		<path fill="#EDF2F2" d="M396.23,358.23c-0.002,0.002-0.006,0.004-0.012,0.008c-0.077,0.051-1.914,1.293-4.201,1.975
			c-0.099,0.031-0.203-0.029-0.234-0.129c-0.03-0.098,0.026-0.205,0.125-0.236c2.231-0.66,4.079-1.908,4.1-1.924
			c0.085-0.059,0.202-0.035,0.261,0.051C396.325,358.057,396.308,358.17,396.23,358.23z"/>
		<path fill="none" d="M444.472,333.063c-1.631-0.549-3.242-0.541-4.865-0.541c-11.498-0.01-22.995,0.082-34.492,0.045
			c-6.606-0.021-13.128,0.426-19.552,2.123c-5.15,1.361-9.729,3.834-13.661,7.287c-7.503,6.59-13.881,14.275-20.32,21.873
			c-5.376,6.346-10.632,12.791-15.912,19.215c-1.992,2.424-3.904,4.912-5.855,7.379c0.584,0.582,1.205,0.326,1.759,0.328
			c11.968,0.014,23.937,0.01,35.905,0.01c14.503,0.002,29.008-0.049,43.512,0.057c2.135,0.016,3.351-0.729,4.357-2.467
			c1.02-1.762,2.249-3.4,3.404-5.082c3.314-4.814,6.653-9.609,9.949-14.436c4.423-6.471,8.843-12.941,13.21-19.447
			c1.889-2.814,4.127-5.438,5.453-8.582C448.95,337.07,448.255,334.334,444.472,333.063z"/>
		<path fill="none" d="M606.802,372.021c-6.826-8.15-13.922-16.057-21.324-23.689c-7.27-7.49-15.99-11.621-26.521-11.621
			c-7.781,0.002-15.568,0.082-23.35,0.023c-1.613-0.014-2.061,0.43-2.072,2.064c-0.117,15.148,0.389,30.299-0.244,45.443
			c-0.111,2.682-0.047,2.688,2.604,2.686c26.773-0.012,53.543-0.025,80.318-0.037c0.875,0,1.752,0,2.932,0
			c-0.447-0.617-0.668-0.963-0.932-1.275C614.411,381.08,610.601,376.555,606.802,372.021z"/>
		<path fill="none" d="M525.106,357.252c0-6.311-0.02-12.621,0.016-18.93c0.008-1.064-0.172-1.619-1.43-1.578
			c-1.582,0.049-3.168-0.207-4.756-0.201c-10.064,0.043-20.15-0.355-30.172,1.039c-5.9,0.822-11.179,2.949-15.393,7.352
			c-7.594,7.938-13.164,17.344-19.267,26.371c-0.707,1.043-8.175,14.357-5.413,15.064c6.288,1.611,22.527,0.537,23.668,0.531
			c8.49-0.027,16.98-0.014,25.471-0.014c8.434,0,16.865-0.053,25.297,0.045c1.699,0.02,2.021-0.531,2.01-2.084
			C525.073,375.648,525.106,366.449,525.106,357.252z"/>
		<path fill="#F0AB16" d="M301.474,461.266h25.691c0,0,8.505,0.475,9.152-6.904V443.6H311.75c0,0-9.632-1.123-10.276,5.781V461.266z
			"/>
		<path fill="#F0AB16" d="M248.151,461.266H222.46c0,0-8.509,0.475-9.155-6.904V443.6h24.57c0,0,9.63-1.123,10.276,5.781V461.266z"
			/>
		<rect x="539.126" y="386.928" fill="#80E1D7" width="4.094" height="104.6"/>
		<path fill="#061E1E" d="M402.148,347.891c0,0,2.71-1.781,2.211-3.775c-0.511-2.035-3.345-2.191-4.96-1.719
			c0,0,0.487-1.371,0.51-2.928c0.038-2.719-4.227-4.24-4.78,0.904c0,0,0.237-2.502-2.738-3.787c-2.969-1.283-3.938,2.5-2.183,4.668
			c0,0-2.204-2.604-4.697-1.018c-1.184,0.75-1.259,1.875-0.594,2.979c-0.614,0.936-1.622,2.822-1.341,4.834
			c0,0,1.925-2.016,3.857-2.584c0.581,0.322,1.222,0.605,1.911,0.82c3.912,1.23,6.778,0.773,6.778,0.773s-0.647,2.023,0.563,3.834
			c0.607,0.902,1.442,1.623,2.382,2.092l-0.069,0.01c0,0,0.444,2.318-0.451,5.309c0,0,4.054-1.111,3.558-4.719
			C404.312,353.361,406.001,349.49,402.148,347.891z"/>
		<g>
			<path fill="#DD4D54" d="M390.118,354.762c-0.61,0.008-1.201-0.24-1.666-0.693c-0.557-0.547-0.88-1.34-0.889-2.18
				c-0.017-1.592,1.08-2.914,2.491-2.93c0.683-0.01,1.325,0.293,1.809,0.848c0.473,0.539,0.739,1.26,0.747,2.025
				c0.015,1.441-0.869,2.658-2.101,2.891C390.381,354.744,390.25,354.76,390.118,354.762z M388.125,351.883
				c0.005,0.691,0.269,1.342,0.72,1.783c0.356,0.35,0.806,0.541,1.267,0.533c1.095-0.014,1.949-1.096,1.936-2.361
				c-0.007-0.631-0.223-1.225-0.608-1.664c-0.374-0.428-0.865-0.658-1.38-0.654c-0.099,0.002-0.194,0.01-0.29,0.029
				C388.82,349.729,388.113,350.73,388.125,351.883z"/>
			<path fill="#DD4D54" d="M383.973,354.004c-1.05,0.006-1.886-1.258-1.905-2.885c-0.016-1.611,0.782-2.906,1.844-2.92
				c1.049-0.012,1.886,1.254,1.905,2.881c0.015,1.498-0.667,2.721-1.621,2.9C384.123,353.994,384.048,354.002,383.973,354.004z
				 M382.629,351.113c0.015,1.27,0.628,2.332,1.338,2.328c0.714-0.006,1.301-1.096,1.289-2.357
				c-0.016-1.266-0.628-2.332-1.337-2.324c-0.042,0-0.083,0.004-0.124,0.012C383.13,348.896,382.618,349.926,382.629,351.113z"/>
			
				<rect x="386.408" y="350.097" transform="matrix(-0.1219 0.9925 -0.9925 -0.1219 782.416 10.218)" fill="#DD4D54" width="0.561" height="2.232"/>
			
				<rect x="395.202" y="348.54" transform="matrix(0.1557 0.9878 -0.9878 0.1557 681.3953 -93.6565)" fill="#DD4D54" width="0.562" height="6.435"/>
		</g>
		<path fill="#EFC15C" d="M396.763,352.631c0,0,1.083-2.785,3.336-1.834c0,0,3.094,1.459-1.413,3.668L396.763,352.631z"/>
		<path fill="#061E1E" d="M489.038,352.035c-1.721-0.492-7.02,0.549-5.484-4.605c0,0,2.525-7.459,13.271-7.02
			c0,0,6.242,0.729,12.539,4.938c3.422,2.291,5.158,1.744,16.305-2.414c4.074-1.521,13.6-4.455,14.479,9.65
			c0.305,4.941-1.582,18.18-17.766,8.721c-2.305-1.344-4.158-3.111-10.658-0.383c-3.682,1.543-8.861,1.789-15.555-3.623
			C496.169,357.299,491.167,352.648,489.038,352.035z"/>
		<circle fill-rule="evenodd" clip-rule="evenodd" cx="427.828" cy="488.422" r="20.749"/>
		<path fill="#046270" d="M457.897,493.408c0.039-0.693,0.064-1.391,0.064-2.094c0-18.467-13.49-33.438-30.132-33.438
			s-30.133,14.971-30.133,33.438c0,0.703,0.026,1.4,0.065,2.094H457.897z"/>
		<circle fill-rule="evenodd" clip-rule="evenodd" cx="640.314" cy="488.422" r="20.749"/>
		<path fill="#046270" d="M670.382,493.408c0.039-0.693,0.066-1.391,0.066-2.094c0-18.467-13.492-33.438-30.135-33.438
			c-16.641,0-30.133,14.971-30.133,33.438c0,0.703,0.027,1.4,0.064,2.094H670.382z"/>
	</g>
	<path fill="#EDF2F2" d="M831.599,252.158c-0.002,0.004-0.004,0.005-0.007,0.007c-0.049,0.048-1.205,1.209-2.764,2.026
		c-0.066,0.036-0.151,0.007-0.188-0.06c-0.035-0.067-0.009-0.152,0.06-0.188c1.521-0.797,2.683-1.962,2.695-1.976
		c0.054-0.054,0.141-0.055,0.198-0.001C831.644,252.02,831.646,252.104,831.599,252.158z"/>
	<path fill="#EFC15C" d="M829.511,246.922c0,0,2.361-3.155,3.953-1.261c0,0,1.435,1.865-2.084,3.134L829.511,246.922z"/>
</g>
</svg>
